<?xml version="1.0" standalone="no"?>
<!DOCTYPE svg PUBLIC "-//W3C//DTD SVG 20010904//EN"
 "http://www.w3.org/TR/2001/REC-SVG-20010904/DTD/svg10.dtd">
<svg version="1.0" xmlns="http://www.w3.org/2000/svg"
 width="232.000000pt" height="44.000000pt" viewBox="0 0 232.000000 44.000000"
 preserveAspectRatio="xMidYMid meet">

<g transform="translate(0.000000,44.000000) scale(0.100000,-0.100000)"
fill="#000000" stroke="none">
<path d="M890 331 l0 -39 -44 5 c-38 5 -48 2 -70 -20 -51 -51 -19 -137 50
-137 20 0 44 5 55 10 13 7 19 7 19 0 0 -5 9 -10 20 -10 19 0 20 7 20 115 l0
115 -25 0 c-22 0 -25 -4 -25 -39z m-19 -71 c29 -16 26 -67 -6 -82 -19 -8 -28
-8 -40 2 -18 15 -20 61 -3 78 15 15 24 15 49 2z"/>
<path d="M1375 357 c-3 -7 -4 -58 -3 -113 3 -98 3 -99 28 -99 l25 0 0 110 c0
107 -1 110 -23 113 -12 2 -24 -3 -27 -11z"/>
<path d="M415 350 c-10 -16 4 -30 31 -30 17 0 24 5 24 20 0 15 -7 20 -24 20
-14 0 -28 -4 -31 -10z"/>
<path d="M1754 351 c-36 -16 -54 -51 -54 -109 0 -43 5 -58 25 -77 34 -35 102
-35 142 -1 25 22 28 31 28 85 0 48 -4 65 -21 81 -24 24 -87 35 -120 21z m74
-43 c18 -18 15 -103 -4 -122 -19 -19 -36 -20 -52 -4 -13 13 -17 120 -5 131 11
11 48 8 61 -5z"/>
<path d="M172 258 c50 -113 53 -118 90 -118 27 0 32 7 74 96 24 52 44 100 44
105 0 6 -12 9 -26 7 -22 -3 -31 -15 -59 -83 l-34 -80 -15 35 c-56 134 -54 130
-85 130 l-30 0 41 -92z"/>
<path d="M1490 296 l0 -55 46 -3 c58 -4 81 -30 49 -54 -14 -11 -32 -13 -63 -9
-39 6 -43 4 -40 -12 4 -23 75 -30 131 -13 92 27 58 120 -44 120 -24 0 -29 4
-29 25 0 24 3 25 55 25 42 0 55 3 55 15 0 12 -16 15 -80 15 l-80 0 0 -54z"/>
<path d="M1940 295 l0 -55 39 0 c52 0 71 -8 71 -31 0 -27 -35 -42 -81 -34 -31
5 -39 4 -39 -8 0 -34 112 -39 154 -6 56 44 22 109 -57 109 -34 0 -38 3 -35 23
3 19 10 22 56 25 37 2 52 7 52 18 0 11 -17 14 -80 14 l-80 0 0 -55z"/>
<path d="M420 220 c0 -79 0 -80 25 -80 25 0 25 1 25 80 0 79 0 80 -25 80 -25
0 -25 -1 -25 -80z"/>
<path d="M524 286 c-3 -7 -4 -42 -2 -77 3 -61 4 -64 28 -64 23 0 25 4 28 52 2
39 8 55 22 63 34 18 49 2 52 -58 3 -53 5 -57 28 -57 23 0 25 4 28 53 4 71 -15
102 -64 102 -19 0 -44 -5 -55 -10 -13 -7 -19 -7 -19 0 0 15 -40 12 -46 -4z"/>
<path d="M1018 293 c-10 -2 -18 -10 -18 -18 0 -9 15 -12 52 -11 42 1 53 -2 56
-16 3 -15 -4 -18 -32 -18 -55 0 -86 -16 -86 -44 0 -35 24 -45 103 -44 l67 1 0
68 c0 57 -3 70 -19 79 -20 10 -90 12 -123 3z m90 -100 c-4 -23 -68 -32 -68 -9
0 16 15 24 48 25 17 1 23 -4 20 -16z"/>
<path d="M1220 220 c0 -79 0 -80 25 -80 23 0 25 3 25 48 0 53 12 72 47 72 16
0 23 6 23 20 0 22 -28 27 -61 10 -13 -7 -19 -7 -19 0 0 5 -9 10 -20 10 -18 0
-20 -7 -20 -80z"/>
</g>
</svg>
